<svg width="390" height="47" viewBox="0 0 390 47" fill="none" xmlns="http://www.w3.org/2000/svg">
<path d="M74.3026 37V13.32H79.0386V37H74.3026ZM84.8651 37V13.32H89.6651L96.5451 25.96L98.9451 31.08H99.1051C98.8491 28.616 98.4651 25.448 98.4651 22.76V13.32H102.977V37H98.1451L91.2971 24.328L88.8971 19.272H88.7371C88.9611 21.8 89.3451 24.776 89.3451 27.528V37H84.8651ZM113.538 37V17.256H106.85V13.32H124.962V17.256H118.274V37H113.538ZM128.834 37V13.32H137.058C142.018 13.32 145.954 15.048 145.954 20.488C145.954 25.768 142.018 28.072 137.058 28.072H133.57V37H128.834ZM133.57 24.328H136.61C139.682 24.328 141.346 23.016 141.346 20.488C141.346 17.96 139.682 17.096 136.61 17.096H133.57V24.328ZM141.698 37L136.194 26.856L139.49 23.88L146.978 37H141.698ZM160.054 37.448C153.75 37.448 149.462 32.776 149.462 25.064C149.462 17.352 153.75 12.904 160.054 12.904C166.326 12.904 170.614 17.384 170.614 25.064C170.614 32.776 166.326 37.448 160.054 37.448ZM160.054 33.352C163.574 33.352 165.814 30.12 165.814 25.064C165.814 20.008 163.574 16.968 160.054 16.968C156.502 16.968 154.294 20.008 154.294 25.064C154.294 30.12 156.502 33.352 160.054 33.352ZM175.271 37V13.32H181.767C188.999 13.32 193.447 17.064 193.447 25.064C193.447 33.032 188.999 37 182.023 37H175.271ZM180.007 33.192H181.447C185.895 33.192 188.615 30.824 188.615 25.064C188.615 19.304 185.895 17.096 181.447 17.096H180.007V33.192ZM207.203 37.448C201.411 37.448 197.987 34.216 197.987 26.376V13.32H202.691V26.792C202.691 31.688 204.419 33.352 207.203 33.352C209.987 33.352 211.811 31.688 211.811 26.792V13.32H216.355V26.376C216.355 34.216 212.995 37.448 207.203 37.448ZM231.685 37.448C225.701 37.448 220.869 33.16 220.869 25.256C220.869 17.448 225.861 12.904 231.877 12.904C234.885 12.904 237.285 14.312 238.821 15.912L236.325 18.952C235.109 17.768 233.765 16.968 231.941 16.968C228.389 16.968 225.701 20.04 225.701 25.096C225.701 30.28 228.101 33.352 231.877 33.352C233.893 33.352 235.493 32.392 236.741 31.016L239.237 33.992C237.285 36.264 234.757 37.448 231.685 37.448ZM247.069 37V17.256H240.381V13.32H258.493V17.256H251.805V37H247.069ZM262.365 37V13.32H267.101V37H262.365ZM282.336 37.448C276.032 37.448 271.744 32.776 271.744 25.064C271.744 17.352 276.032 12.904 282.336 12.904C288.608 12.904 292.896 17.384 292.896 25.064C292.896 32.776 288.608 37.448 282.336 37.448ZM282.336 33.352C285.856 33.352 288.096 30.12 288.096 25.064C288.096 20.008 285.856 16.968 282.336 16.968C278.784 16.968 276.576 20.008 276.576 25.064C276.576 30.12 278.784 33.352 282.336 33.352ZM297.553 37V13.32H302.353L309.233 25.96L311.633 31.08H311.793C311.537 28.616 311.153 25.448 311.153 22.76V13.32H315.665V37H310.833L303.985 24.328L301.585 19.272H301.425C301.649 21.8 302.033 24.776 302.033 27.528V37H297.553Z" fill="black"/>
<rect x="67" width="256" height="1" fill="black"/>
<rect x="67" y="46" width="256" height="1" fill="black"/>
</svg>
