<svg width="390" height="48" viewBox="0 0 390 48" fill="none" xmlns="http://www.w3.org/2000/svg">
<path d="M153.828 38.448C150.628 38.448 147.492 37.232 145.188 35.024L147.908 31.76C149.572 33.328 151.844 34.352 153.924 34.352C156.388 34.352 157.668 33.296 157.668 31.664C157.668 29.904 156.228 29.328 154.116 28.432L150.948 27.088C148.58 26.128 146.148 24.176 146.148 20.752C146.148 16.88 149.572 13.904 154.34 13.904C157.092 13.904 159.844 14.992 161.764 16.944L159.396 19.92C157.86 18.672 156.292 17.968 154.34 17.968C152.26 17.968 150.948 18.896 150.948 20.432C150.948 22.128 152.644 22.768 154.66 23.568L157.764 24.848C160.612 26.032 162.5 27.888 162.5 31.28C162.5 35.152 159.268 38.448 153.828 38.448ZM170.522 38V18.256H163.834V14.32H181.946V18.256H175.258V38H170.522ZM194.07 38.448C187.766 38.448 183.478 33.776 183.478 26.064C183.478 18.352 187.766 13.904 194.07 13.904C200.342 13.904 204.63 18.384 204.63 26.064C204.63 33.776 200.342 38.448 194.07 38.448ZM194.07 34.352C197.59 34.352 199.83 31.12 199.83 26.064C199.83 21.008 197.59 17.968 194.07 17.968C190.518 17.968 188.31 21.008 188.31 26.064C188.31 31.12 190.518 34.352 194.07 34.352ZM209.287 38V14.32H217.511C222.471 14.32 226.407 16.048 226.407 21.488C226.407 26.768 222.471 29.072 217.511 29.072H214.023V38H209.287ZM214.023 25.328H217.063C220.135 25.328 221.799 24.016 221.799 21.488C221.799 18.96 220.135 18.096 217.063 18.096H214.023V25.328ZM222.151 38L216.647 27.856L219.943 24.88L227.431 38H222.151ZM234.506 38V29.36L227.37 14.32H232.394L234.762 20.112C235.466 21.872 236.106 23.536 236.81 25.36H236.938C237.674 23.536 238.378 21.872 239.082 20.112L241.418 14.32H246.346L239.21 29.36V38H234.506Z" fill="black"/>
<rect x="136" width="118" height="1" fill="black"/>
<rect x="136" y="47" width="118" height="1" fill="black"/>
</svg>
