<svg width="390" height="47" fill="none" xmlns="http://www.w3.org/2000/svg"><path d="M74.303 37V13.32h4.736V37h-4.736zm10.562 0V13.32h4.8l6.88 12.64 2.4 5.12h.16c-.256-2.464-.64-5.632-.64-8.32v-9.44h4.512V37h-4.832l-6.848-12.672-2.4-5.056h-.16c.224 2.528.608 5.504.608 8.256V37h-4.48zm28.673 0V17.256h-6.688V13.32h18.112v3.936h-6.688V37h-4.736zm15.296 0V13.32h8.224c4.96 0 8.896 1.728 8.896 7.168 0 5.28-3.936 7.584-8.896 7.584h-3.488V37h-4.736zm4.736-12.672h3.04c3.072 0 4.736-1.312 4.736-3.84 0-2.528-1.664-3.392-4.736-3.392h-3.04v7.232zM141.698 37l-5.504-10.144 3.296-2.976L146.978 37h-5.28zm18.356.448c-6.304 0-10.592-4.672-10.592-12.384 0-7.712 4.288-12.16 10.592-12.16 6.272 0 10.56 4.48 10.56 12.16 0 7.712-4.288 12.384-10.56 12.384zm0-4.096c3.52 0 5.76-3.232 5.76-8.288s-2.24-8.096-5.76-8.096c-3.552 0-5.76 3.04-5.76 8.096s2.208 8.288 5.76 8.288zM175.271 37V13.32h6.496c7.232 0 11.68 3.744 11.68 11.744 0 7.968-4.448 11.936-11.424 11.936h-6.752zm4.736-3.808h1.44c4.448 0 7.168-2.368 7.168-8.128s-2.72-7.968-7.168-7.968h-1.44v16.096zm27.196 4.256c-5.792 0-9.216-3.232-9.216-11.072V13.32h4.704v13.472c0 4.896 1.728 6.56 4.512 6.56s4.608-1.664 4.608-6.56V13.32h4.544v13.056c0 7.84-3.36 11.072-9.152 11.072zm24.482 0c-5.984 0-10.816-4.288-10.816-12.192 0-7.808 4.992-12.352 11.008-12.352 3.008 0 5.408 1.408 6.944 3.008l-2.496 3.04c-1.216-1.184-2.56-1.984-4.384-1.984-3.552 0-6.24 3.072-6.24 8.128 0 5.184 2.4 8.256 6.176 8.256 2.016 0 3.616-.96 4.864-2.336l2.496 2.976c-1.952 2.272-4.48 3.456-7.552 3.456zM247.069 37V17.256h-6.688V13.32h18.112v3.936h-6.688V37h-4.736zm15.296 0V13.32h4.736V37h-4.736zm19.971.448c-6.304 0-10.592-4.672-10.592-12.384 0-7.712 4.288-12.16 10.592-12.16 6.272 0 10.56 4.48 10.56 12.16 0 7.712-4.288 12.384-10.56 12.384zm0-4.096c3.52 0 5.76-3.232 5.76-8.288s-2.24-8.096-5.76-8.096c-3.552 0-5.76 3.04-5.76 8.096s2.208 8.288 5.76 8.288zM297.553 37V13.32h4.8l6.88 12.64 2.4 5.12h.16c-.256-2.464-.64-5.632-.64-8.32v-9.44h4.512V37h-4.832l-6.848-12.672-2.4-5.056h-.16c.224 2.528.608 5.504.608 8.256V37h-4.48zM67 0h256v1H67zM67 46h256v1H67z" fill="#000"/></svg>