<svg width="390" height="48" fill="none" xmlns="http://www.w3.org/2000/svg"><path d="M153.828 38.448c-3.2 0-6.336-1.216-8.64-3.424l2.72-3.264c1.664 1.568 3.936 2.592 6.016 2.592 2.464 0 3.744-1.056 3.744-2.688 0-1.76-1.44-2.336-3.552-3.232l-3.168-1.344c-2.368-.96-4.8-2.912-4.8-6.336 0-3.872 3.424-6.848 8.192-6.848 2.752 0 5.504 1.088 7.424 3.04l-2.368 2.976c-1.536-1.248-3.104-1.952-5.056-1.952-2.08 0-3.392.928-3.392 2.464 0 1.696 1.696 2.336 3.712 3.136l3.104 1.28c2.848 1.184 4.736 3.04 4.736 6.432 0 3.872-3.232 7.168-8.672 7.168zM170.522 38V18.256h-6.688V14.32h18.112v3.936h-6.688V38h-4.736zm23.548.448c-6.304 0-10.592-4.672-10.592-12.384 0-7.712 4.288-12.16 10.592-12.16 6.272 0 10.56 4.48 10.56 12.16 0 7.712-4.288 12.384-10.56 12.384zm0-4.096c3.52 0 5.76-3.232 5.76-8.288s-2.24-8.096-5.76-8.096c-3.552 0-5.76 3.04-5.76 8.096s2.208 8.288 5.76 8.288zM209.287 38V14.32h8.224c4.96 0 8.896 1.728 8.896 7.168 0 5.28-3.936 7.584-8.896 7.584h-3.488V38h-4.736zm4.736-12.672h3.04c3.072 0 4.736-1.312 4.736-3.84 0-2.528-1.664-3.392-4.736-3.392h-3.04v7.232zM222.151 38l-5.504-10.144 3.296-2.976L227.431 38h-5.28zm12.355 0v-8.64l-7.136-15.04h5.024l2.368 5.792c.704 1.76 1.344 3.424 2.048 5.248h.128c.736-1.824 1.44-3.488 2.144-5.248l2.336-5.792h4.928l-7.136 15.04V38h-4.704zM136 0h118v1H136zM136 47h118v1H136z" fill="#000"/></svg>